<mxfile host="app.diagrams.net" modified="2023-07-11T20:33:01.238Z" agent="Mozilla/5.0 (Windows NT 10.0; Win64; x64) AppleWebKit/537.36 (KHTML, like Gecko) Chrome/114.0.0.0 Safari/537.36 Edg/114.0.1823.67" etag="wY7wyjJUL3Ws6ch7Nejy" version="21.6.1" type="device">
  <diagram id="0tKlivxDbWwi2x9crHSU" name="第 1 页">
    <mxGraphModel dx="2166" dy="1166" grid="0" gridSize="10" guides="1" tooltips="1" connect="1" arrows="1" fold="1" page="1" pageScale="1" pageWidth="827" pageHeight="1169" math="0" shadow="0">
      <root>
        <mxCell id="0" />
        <mxCell id="1" parent="0" />
      </root>
    </mxGraphModel>
  </diagram>
</mxfile>
